<svg width="233" height="18" viewBox="0 0 233 18" fill="none" xmlns="http://www.w3.org/2000/svg">
<path d="M6.316 7.256C6.72133 7.32 7.08933 7.48533 7.42 7.752C7.76133 8.01867 8.028 8.34933 8.22 8.744C8.42267 9.13867 8.524 9.56 8.524 10.008C8.524 10.5733 8.38 11.0853 8.092 11.544C7.804 11.992 7.38267 12.3493 6.828 12.616C6.284 12.872 5.63867 13 4.892 13H0.732V1.848H4.732C5.48933 1.848 6.13467 1.976 6.668 2.232C7.20133 2.47733 7.60133 2.81333 7.868 3.24C8.13467 3.66667 8.268 4.14667 8.268 4.68C8.268 5.34133 8.08667 5.89067 7.724 6.328C7.372 6.75467 6.90267 7.064 6.316 7.256ZM2.188 6.664H4.636C5.31867 6.664 5.84667 6.504 6.22 6.184C6.59333 5.864 6.78 5.42133 6.78 4.856C6.78 4.29067 6.59333 3.848 6.22 3.528C5.84667 3.208 5.308 3.048 4.604 3.048H2.188V6.664ZM4.764 11.8C5.48933 11.8 6.05467 11.6293 6.46 11.288C6.86533 10.9467 7.068 10.472 7.068 9.864C7.068 9.24533 6.85467 8.76 6.428 8.408C6.00133 8.04533 5.43067 7.864 4.716 7.864H2.188V11.8H4.764ZM18.0965 4.232L12.8165 17.128H11.3125L13.0405 12.904L9.5045 4.232H11.1205L13.8725 11.336L16.5925 4.232H18.0965ZM39.0417 1.768L36.1138 13H32.8018L31.0098 5.608L29.1538 13H25.8418L22.9938 1.768H25.9218L27.5378 9.944L29.5378 1.768H32.5458L34.4658 9.944L36.0978 1.768H39.0417ZM39.8699 8.52C39.8699 7.60267 40.0405 6.79733 40.3819 6.104C40.7339 5.41067 41.2085 4.87733 41.8059 4.504C42.4032 4.13067 43.0699 3.944 43.8059 3.944C44.4352 3.944 44.9845 4.072 45.4539 4.328C45.9339 4.584 46.3019 4.92 46.5579 5.336V4.072H49.2939V13H46.5579V11.736C46.2912 12.152 45.9179 12.488 45.4379 12.744C44.9685 13 44.4192 13.128 43.7899 13.128C43.0645 13.128 42.4032 12.9413 41.8059 12.568C41.2085 12.184 40.7339 11.6453 40.3819 10.952C40.0405 10.248 39.8699 9.43733 39.8699 8.52ZM46.5579 8.536C46.5579 7.85333 46.3659 7.31467 45.9819 6.92C45.6085 6.52533 45.1499 6.328 44.6059 6.328C44.0619 6.328 43.5979 6.52533 43.2139 6.92C42.8405 7.304 42.6539 7.83733 42.6539 8.52C42.6539 9.20267 42.8405 9.74667 43.2139 10.152C43.5979 10.5467 44.0619 10.744 44.6059 10.744C45.1499 10.744 45.6085 10.5467 45.9819 10.152C46.3659 9.75733 46.5579 9.21867 46.5579 8.536ZM56.7613 3.976C57.7853 3.976 58.6066 4.31733 59.2253 5C59.8439 5.672 60.1533 6.6 60.1533 7.784V13H57.4333V8.152C57.4333 7.55467 57.2786 7.09067 56.9693 6.76C56.6599 6.42933 56.2439 6.264 55.7213 6.264C55.1986 6.264 54.7826 6.42933 54.4733 6.76C54.1639 7.09067 54.0093 7.55467 54.0093 8.152V13H51.2733V1.16H54.0093V5.272C54.2866 4.87733 54.6653 4.56267 55.1453 4.328C55.6253 4.09333 56.1639 3.976 56.7613 3.976ZM63.4305 3.144C62.9505 3.144 62.5558 3.00533 62.2465 2.728C61.9478 2.44 61.7985 2.088 61.7985 1.672C61.7985 1.24533 61.9478 0.893333 62.2465 0.615999C62.5558 0.327999 62.9505 0.183999 63.4305 0.183999C63.8998 0.183999 64.2838 0.327999 64.5825 0.615999C64.8918 0.893333 65.0465 1.24533 65.0465 1.672C65.0465 2.088 64.8918 2.44 64.5825 2.728C64.2838 3.00533 63.8998 3.144 63.4305 3.144ZM64.7905 4.072V13H62.0545V4.072H64.7905ZM66.2293 8.52C66.2293 7.60267 66.3999 6.79733 66.7413 6.104C67.0933 5.41067 67.5679 4.87733 68.1653 4.504C68.7626 4.13067 69.4293 3.944 70.1653 3.944C70.7519 3.944 71.2853 4.06667 71.7653 4.312C72.2559 4.55733 72.6399 4.888 72.9173 5.304V1.16H75.6533V13H72.9173V11.72C72.6613 12.1467 72.2933 12.488 71.8133 12.744C71.3439 13 70.7946 13.128 70.1653 13.128C69.4293 13.128 68.7626 12.9413 68.1653 12.568C67.5679 12.184 67.0933 11.6453 66.7413 10.952C66.3999 10.248 66.2293 9.43733 66.2293 8.52ZM72.9173 8.536C72.9173 7.85333 72.7253 7.31467 72.3413 6.92C71.9679 6.52533 71.5093 6.328 70.9653 6.328C70.4213 6.328 69.9573 6.52533 69.5733 6.92C69.1999 7.304 69.0133 7.83733 69.0133 8.52C69.0133 9.20267 69.1999 9.74667 69.5733 10.152C69.9573 10.5467 70.4213 10.744 70.9653 10.744C71.5093 10.744 71.9679 10.5467 72.3413 10.152C72.7253 9.75733 72.9173 9.21867 72.9173 8.536ZM88.0153 11.016H83.8233L83.1513 13H80.2873L84.3513 1.768H87.5193L91.5833 13H88.6873L88.0153 11.016ZM87.3113 8.904L85.9193 4.792L84.5433 8.904H87.3113ZM95.5561 5.56C95.8761 5.06933 96.2761 4.68533 96.7561 4.408C97.2361 4.12 97.7695 3.976 98.3561 3.976V6.872H97.6041C96.9215 6.872 96.4095 7.02133 96.0681 7.32C95.7268 7.608 95.5561 8.12 95.5561 8.856V13H92.8201V4.072H95.5561V5.56ZM101.04 3.144C100.56 3.144 100.165 3.00533 99.8559 2.728C99.5572 2.44 99.4079 2.088 99.4079 1.672C99.4079 1.24533 99.5572 0.893333 99.8559 0.615999C100.165 0.327999 100.56 0.183999 101.04 0.183999C101.509 0.183999 101.893 0.327999 102.192 0.615999C102.501 0.893333 102.656 1.24533 102.656 1.672C102.656 2.088 102.501 2.44 102.192 2.728C101.893 3.00533 101.509 3.144 101.04 3.144ZM102.4 4.072V13H99.6639V4.072H102.4ZM110.712 14.696H109.256V0.28H110.712V14.696ZM121.836 7.096C121.836 5.26133 122.134 3.832 122.732 2.808C123.329 1.77333 124.374 1.256 125.868 1.256C127.35 1.256 128.39 1.77333 128.988 2.808C129.585 3.832 129.884 5.26133 129.884 7.096C129.884 8.96267 129.585 10.4133 128.988 11.448C128.39 12.4827 127.35 13 125.868 13C124.374 13 123.329 12.4827 122.732 11.448C122.134 10.4133 121.836 8.96267 121.836 7.096ZM128.444 7.096C128.444 6.168 128.38 5.384 128.252 4.744C128.134 4.09333 127.884 3.57067 127.5 3.176C127.126 2.78133 126.582 2.584 125.868 2.584C125.142 2.584 124.588 2.78133 124.204 3.176C123.83 3.57067 123.58 4.09333 123.452 4.744C123.334 5.384 123.276 6.168 123.276 7.096C123.276 8.056 123.334 8.86133 123.452 9.512C123.58 10.1627 123.83 10.6853 124.204 11.08C124.588 11.4747 125.142 11.672 125.868 11.672C126.582 11.672 127.126 11.4747 127.5 11.08C127.884 10.6853 128.134 10.1627 128.252 9.512C128.38 8.86133 128.444 8.056 128.444 7.096ZM131.851 4.344C131.925 3.36267 132.304 2.59467 132.987 2.04C133.669 1.48533 134.555 1.208 135.643 1.208C136.368 1.208 136.992 1.34133 137.515 1.608C138.048 1.864 138.448 2.216 138.715 2.664C138.992 3.112 139.131 3.61867 139.131 4.184C139.131 4.84533 138.939 5.416 138.555 5.896C138.181 6.376 137.691 6.68533 137.083 6.824V6.904C137.776 7.07467 138.325 7.41067 138.731 7.912C139.136 8.41333 139.339 9.06933 139.339 9.88C139.339 10.488 139.2 11.0373 138.923 11.528C138.645 12.008 138.229 12.3867 137.675 12.664C137.12 12.9413 136.453 13.08 135.675 13.08C134.544 13.08 133.616 12.7867 132.891 12.2C132.165 11.6027 131.76 10.76 131.675 9.672H133.083C133.157 10.312 133.419 10.8347 133.867 11.24C134.315 11.6453 134.912 11.848 135.659 11.848C136.405 11.848 136.971 11.656 137.355 11.272C137.749 10.8773 137.947 10.3707 137.947 9.752C137.947 8.952 137.68 8.376 137.147 8.024C136.613 7.672 135.808 7.496 134.731 7.496H134.363V6.28H134.747C135.728 6.26933 136.469 6.10933 136.971 5.8C137.472 5.48 137.723 4.98933 137.723 4.328C137.723 3.76267 137.536 3.30933 137.163 2.968C136.8 2.62667 136.277 2.456 135.595 2.456C134.933 2.456 134.4 2.62667 133.995 2.968C133.589 3.30933 133.349 3.768 133.275 4.344H131.851ZM157.122 1.928V13H155.666V4.744L151.986 13H150.962L147.266 4.728V13H145.81V1.928H147.378L151.474 11.08L155.57 1.928H157.122ZM159.047 8.584C159.047 7.688 159.229 6.904 159.591 6.232C159.954 5.54933 160.45 5.02133 161.079 4.648C161.719 4.27467 162.429 4.088 163.207 4.088C163.975 4.088 164.642 4.25333 165.207 4.584C165.773 4.91467 166.194 5.33067 166.471 5.832V4.232H167.943V13H166.471V11.368C166.183 11.88 165.751 12.3067 165.175 12.648C164.61 12.9787 163.949 13.144 163.191 13.144C162.413 13.144 161.709 12.952 161.079 12.568C160.45 12.184 159.954 11.6453 159.591 10.952C159.229 10.2587 159.047 9.46933 159.047 8.584ZM166.471 8.6C166.471 7.93867 166.338 7.36267 166.071 6.872C165.805 6.38133 165.442 6.008 164.983 5.752C164.535 5.48533 164.039 5.352 163.495 5.352C162.951 5.352 162.455 5.48 162.007 5.736C161.559 5.992 161.202 6.36533 160.935 6.856C160.669 7.34667 160.535 7.92267 160.535 8.584C160.535 9.256 160.669 9.84267 160.935 10.344C161.202 10.8347 161.559 11.2133 162.007 11.48C162.455 11.736 162.951 11.864 163.495 11.864C164.039 11.864 164.535 11.736 164.983 11.48C165.442 11.2133 165.805 10.8347 166.071 10.344C166.338 9.84267 166.471 9.26133 166.471 8.6ZM171.86 5.656C172.116 5.15467 172.479 4.76533 172.948 4.488C173.428 4.21067 174.009 4.072 174.692 4.072V5.576H174.308C172.676 5.576 171.86 6.46133 171.86 8.232V13H170.404V4.232H171.86V5.656ZM175.829 8.6C175.829 7.69333 176.01 6.904 176.373 6.232C176.735 5.54933 177.237 5.02133 177.877 4.648C178.527 4.27467 179.269 4.088 180.101 4.088C181.178 4.088 182.063 4.34933 182.757 4.872C183.461 5.39467 183.925 6.12 184.149 7.048H182.581C182.431 6.51467 182.138 6.09333 181.701 5.784C181.274 5.47467 180.741 5.32 180.101 5.32C179.269 5.32 178.597 5.608 178.085 6.184C177.573 6.74933 177.317 7.55467 177.317 8.6C177.317 9.656 177.573 10.472 178.085 11.048C178.597 11.624 179.269 11.912 180.101 11.912C180.741 11.912 181.274 11.7627 181.701 11.464C182.127 11.1653 182.421 10.7387 182.581 10.184H184.149C183.914 11.08 183.445 11.8 182.741 12.344C182.037 12.8773 181.157 13.144 180.101 13.144C179.269 13.144 178.527 12.9573 177.877 12.584C177.237 12.2107 176.735 11.6827 176.373 11C176.01 10.3173 175.829 9.51733 175.829 8.6ZM190.443 4.072C191.105 4.072 191.702 4.216 192.235 4.504C192.769 4.78133 193.185 5.20267 193.483 5.768C193.793 6.33333 193.947 7.02133 193.947 7.832V13H192.507V8.04C192.507 7.16533 192.289 6.49867 191.851 6.04C191.414 5.57067 190.817 5.336 190.059 5.336C189.291 5.336 188.678 5.576 188.219 6.056C187.771 6.536 187.547 7.23467 187.547 8.152V13H186.091V1.16H187.547V5.48C187.835 5.032 188.23 4.68533 188.731 4.44C189.243 4.19467 189.814 4.072 190.443 4.072ZM200.175 11.832C201.53 10.744 202.591 9.85333 203.359 9.16C204.127 8.456 204.773 7.72533 205.295 6.968C205.829 6.2 206.095 5.448 206.095 4.712C206.095 4.01867 205.925 3.47467 205.583 3.08C205.253 2.67467 204.714 2.472 203.967 2.472C203.242 2.472 202.677 2.70133 202.271 3.16C201.877 3.608 201.663 4.21067 201.631 4.968H200.223C200.266 3.77333 200.629 2.85067 201.311 2.2C201.994 1.54933 202.874 1.224 203.951 1.224C205.05 1.224 205.919 1.528 206.559 2.136C207.21 2.744 207.535 3.58133 207.535 4.648C207.535 5.53333 207.269 6.39733 206.735 7.24C206.213 8.072 205.615 8.808 204.943 9.448C204.271 10.0773 203.413 10.8133 202.367 11.656H207.871V12.872H200.175V11.832ZM209.555 7.096C209.555 5.26133 209.853 3.832 210.451 2.808C211.048 1.77333 212.093 1.256 213.587 1.256C215.069 1.256 216.109 1.77333 216.707 2.808C217.304 3.832 217.602 5.26133 217.602 7.096C217.602 8.96267 217.304 10.4133 216.707 11.448C216.109 12.4827 215.069 13 213.587 13C212.093 13 211.048 12.4827 210.451 11.448C209.853 10.4133 209.555 8.96267 209.555 7.096ZM216.163 7.096C216.163 6.168 216.099 5.384 215.971 4.744C215.853 4.09333 215.603 3.57067 215.219 3.176C214.845 2.78133 214.301 2.584 213.587 2.584C212.861 2.584 212.307 2.78133 211.923 3.176C211.549 3.57067 211.299 4.09333 211.171 4.744C211.053 5.384 210.995 6.168 210.995 7.096C210.995 8.056 211.053 8.86133 211.171 9.512C211.299 10.1627 211.549 10.6853 211.923 11.08C212.307 11.4747 212.861 11.672 213.587 11.672C214.301 11.672 214.845 11.4747 215.219 11.08C215.603 10.6853 215.853 10.1627 215.971 9.512C216.099 8.86133 216.163 8.056 216.163 7.096ZM219.217 2.76V1.432H222.225V13H220.753V2.76H219.217ZM226.598 9.896C226.705 10.504 226.95 10.9733 227.334 11.304C227.729 11.6347 228.257 11.8 228.918 11.8C229.804 11.8 230.454 11.4533 230.87 10.76C231.297 10.0667 231.5 8.89867 231.478 7.256C231.254 7.736 230.881 8.11467 230.358 8.392C229.836 8.65867 229.254 8.792 228.614 8.792C227.9 8.792 227.26 8.648 226.694 8.36C226.14 8.06133 225.702 7.62933 225.382 7.064C225.062 6.49867 224.902 5.816 224.902 5.016C224.902 3.87467 225.233 2.95733 225.894 2.264C226.556 1.56 227.494 1.208 228.71 1.208C230.204 1.208 231.249 1.69333 231.846 2.664C232.454 3.63467 232.758 5.08 232.758 7C232.758 8.344 232.636 9.45333 232.39 10.328C232.156 11.2027 231.75 11.8693 231.174 12.328C230.609 12.7867 229.83 13.016 228.838 13.016C227.75 13.016 226.902 12.7227 226.294 12.136C225.686 11.5493 225.34 10.8027 225.254 9.896H226.598ZM228.854 7.56C229.569 7.56 230.156 7.34133 230.614 6.904C231.073 6.456 231.302 5.85333 231.302 5.096C231.302 4.296 231.078 3.65067 230.63 3.16C230.182 2.66933 229.553 2.424 228.742 2.424C227.996 2.424 227.398 2.65867 226.95 3.128C226.513 3.59733 226.294 4.216 226.294 4.984C226.294 5.76267 226.513 6.38667 226.95 6.856C227.388 7.32533 228.022 7.56 228.854 7.56Z" fill="#22343D"/>
</svg>
